<?xml version="1.0" encoding="UTF-8" standalone="no"?>
<!-- Created with Inkscape (http://www.inkscape.org/) -->
<svg
   xmlns:dc="http://purl.org/dc/elements/1.1/"
   xmlns:cc="http://web.resource.org/cc/"
   xmlns:rdf="http://www.w3.org/1999/02/22-rdf-syntax-ns#"
   xmlns:svg="http://www.w3.org/2000/svg"
   xmlns="http://www.w3.org/2000/svg"
   xmlns:sodipodi="http://sodipodi.sourceforge.net/DTD/sodipodi-0.dtd"
   xmlns:inkscape="http://www.inkscape.org/namespaces/inkscape"
   height="800"
   width="313.85458"
   id="svg2"
   sodipodi:version="0.32"
   inkscape:version="0.44.1"
   sodipodi:docbase="D:\mastah\wiki"
   sodipodi:docname="jackson_king_shape.svg"
   version="1.0">
  <defs
     id="defs4" />
  <sodipodi:namedview
     id="base"
     pagecolor="#ffffff"
     bordercolor="#666666"
     borderopacity="1.0"
     inkscape:pageopacity="0.0"
     inkscape:pageshadow="2"
     inkscape:cx="134.9166"
     inkscape:cy="234.05224"
     inkscape:zoom="1.777693"
     inkscape:document-units="px"
     inkscape:current-layer="layer1"
     inkscape:window-width="1152"
     inkscape:window-height="808"
     inkscape:window-x="-4"
     inkscape:window-y="-4"
     height="800px"
     width="313.85458px" />
  <metadata
     id="metadata7">
    <rdf:RDF>
      <cc:Work
         rdf:about="">
        <dc:format>image/svg+xml</dc:format>
        <dc:type
           rdf:resource="http://purl.org/dc/dcmitype/StillImage" />
      </cc:Work>
    </rdf:RDF>
  </metadata>
  <g
     inkscape:groupmode="layer"
     inkscape:label="Warstwa 1"
     id="layer1"
     transform="translate(-9.350702,-256.2292)">
    <path
       style="fill:white;fill-rule:evenodd;stroke:black;stroke-width:2;stroke-linecap:butt;stroke-linejoin:miter;stroke-miterlimit:4;stroke-dasharray:none;stroke-opacity:1"
       d="M 10.350702,1054.052 C 55.185727,1005.5962 102.19539,954.34562 166.72977,923.78214 C 231.35477,954.20313 279.35666,1007.572 322.2053,1053.4446 L 198.02624,705.43576 C 191.11449,701.66797 187.89637,697.17891 186.32653,692.84161 L 181.15834,369.51828 C 192.35474,330.77133 210.42199,294.36666 228.83536,257.22922 L 204.71122,264.22546 L 134.94317,347.01665 C 142.96473,350.31981 150.61542,361.67608 151.84522,369.93362 L 146.08476,693.74971 C 142.24284,698.76812 139.01727,701.9375 135.76003,705.20187 L 10.350702,1054.052 z "
       id="path1933"
       sodipodi:nodetypes="ccccccccccccc" />
    <rect
       style="opacity:1;fill:none;fill-opacity:1;stroke:black;stroke-width:2;stroke-linecap:round;stroke-miterlimit:4;stroke-dasharray:none;stroke-dashoffset:0;stroke-opacity:1"
       id="rect2823"
       width="50.793652"
       height="27.637722"
       x="141.74768"
       y="744.9859"
       ry="2.4045701" />
    <rect
       style="opacity:1;fill:none;fill-opacity:1;stroke:black;stroke-width:2;stroke-linecap:round;stroke-miterlimit:4;stroke-dasharray:none;stroke-dashoffset:0;stroke-opacity:1"
       id="rect5480"
       width="50.793652"
       height="27.637722"
       x="141.74767"
       y="804.99713"
       ry="2.4045701" />
    <rect
       style="opacity:1;fill:none;fill-opacity:1;stroke:black;stroke-width:2.00000119;stroke-linecap:round;stroke-miterlimit:4;stroke-dasharray:none;stroke-dashoffset:0;stroke-opacity:1"
       id="rect5482"
       width="63.118618"
       height="11.204491"
       x="105.66962"
       y="855.87201"
       ry="4.855279"
       transform="matrix(0.999411,-3.432724e-2,3.432724e-2,0.999411,0,0)" />
    <path
       sodipodi:type="arc"
       style="opacity:1;fill:none;fill-opacity:1;stroke:black;stroke-width:2.08455276;stroke-linecap:round;stroke-miterlimit:4;stroke-dasharray:none;stroke-dashoffset:0;stroke-opacity:1"
       id="path5484"
       sodipodi:cx="149.3931"
       sodipodi:cy="910.43872"
       sodipodi:rx="3.3613446"
       sodipodi:ry="2.9878619"
       d="M 152.75444 910.43872 A 3.3613446 2.9878619 0 1 1  146.03175,910.43872 A 3.3613446 2.9878619 0 1 1  152.75444 910.43872 z"
       transform="matrix(0.678426,0,0,0.763228,45.21777,207.9165)" />
    <path
       transform="matrix(0.678426,0,0,0.763228,52.89548,203.1152)"
       d="M 152.75444 910.43872 A 3.3613446 2.9878619 0 1 1  146.03175,910.43872 A 3.3613446 2.9878619 0 1 1  152.75444 910.43872 z"
       sodipodi:ry="2.9878619"
       sodipodi:rx="3.3613446"
       sodipodi:cy="910.43872"
       sodipodi:cx="149.3931"
       id="path6371"
       style="opacity:1;fill:none;fill-opacity:1;stroke:black;stroke-width:2.08455276;stroke-linecap:round;stroke-miterlimit:4;stroke-dasharray:none;stroke-dashoffset:0;stroke-opacity:1"
       sodipodi:type="arc" />
    <path
       sodipodi:type="arc"
       style="opacity:1;fill:none;fill-opacity:1;stroke:black;stroke-width:2.08455276;stroke-linecap:round;stroke-miterlimit:4;stroke-dasharray:none;stroke-dashoffset:0;stroke-opacity:1"
       id="path6373"
       sodipodi:cx="149.3931"
       sodipodi:cy="910.43872"
       sodipodi:rx="3.3613446"
       sodipodi:ry="2.9878619"
       d="M 152.75444 910.43872 A 3.3613446 2.9878619 0 1 1  146.03175,910.43872 A 3.3613446 2.9878619 0 1 1  152.75444 910.43872 z"
       transform="matrix(0.678426,0,0,0.763228,60.8265,197.5977)" />
    <path
       transform="matrix(0.678426,0,0,0.763228,69.51835,197.481)"
       d="M 152.75444 910.43872 A 3.3613446 2.9878619 0 1 1  146.03175,910.43872 A 3.3613446 2.9878619 0 1 1  152.75444 910.43872 z"
       sodipodi:ry="2.9878619"
       sodipodi:rx="3.3613446"
       sodipodi:cy="910.43872"
       sodipodi:cx="149.3931"
       id="path6375"
       style="opacity:1;fill:none;fill-opacity:1;stroke:black;stroke-width:2.08455276;stroke-linecap:round;stroke-miterlimit:4;stroke-dasharray:none;stroke-dashoffset:0;stroke-opacity:1"
       sodipodi:type="arc" />
    <path
       sodipodi:type="arc"
       style="opacity:1;fill:none;fill-opacity:1;stroke:black;stroke-width:2.08455276;stroke-linecap:round;stroke-miterlimit:4;stroke-dasharray:none;stroke-dashoffset:0;stroke-opacity:1"
       id="path6377"
       sodipodi:cx="149.3931"
       sodipodi:cy="910.43872"
       sodipodi:rx="3.3613446"
       sodipodi:ry="2.9878619"
       d="M 152.75444 910.43872 A 3.3613446 2.9878619 0 1 1  146.03175,910.43872 A 3.3613446 2.9878619 0 1 1  152.75444 910.43872 z"
       transform="matrix(0.678426,0,0,0.763228,77.67325,202.3476)" />
    <path
       transform="matrix(0.678426,0,0,0.763228,84.94779,208.3631)"
       d="M 152.75444 910.43872 A 3.3613446 2.9878619 0 1 1  146.03175,910.43872 A 3.3613446 2.9878619 0 1 1  152.75444 910.43872 z"
       sodipodi:ry="2.9878619"
       sodipodi:rx="3.3613446"
       sodipodi:cy="910.43872"
       sodipodi:cx="149.3931"
       id="path6379"
       style="opacity:1;fill:none;fill-opacity:1;stroke:black;stroke-width:2.08455276;stroke-linecap:round;stroke-miterlimit:4;stroke-dasharray:none;stroke-dashoffset:0;stroke-opacity:1"
       sodipodi:type="arc" />
    <path
       style="fill:none;fill-rule:evenodd;stroke:black;stroke-width:2.0173099;stroke-linecap:butt;stroke-linejoin:miter;stroke-miterlimit:4;stroke-dasharray:none;stroke-opacity:1"
       d="M 151.1241,369.82046 L 180.85161,369.82046"
       id="path6381" />
    <path
       id="path7268"
       d="M 150.44494,399.03044 L 181.53233,399.03044"
       style="fill:none;fill-rule:evenodd;stroke:black;stroke-width:2.06293488;stroke-linecap:butt;stroke-linejoin:miter;stroke-miterlimit:4;stroke-dasharray:none;stroke-opacity:1" />
    <path
       style="fill:none;fill-rule:evenodd;stroke:black;stroke-width:2.06293488;stroke-linecap:butt;stroke-linejoin:miter;stroke-miterlimit:4;stroke-dasharray:none;stroke-opacity:1"
       d="M 150.44494,424.68109 L 181.53233,424.68109"
       id="path7270" />
    <path
       id="path7272"
       d="M 150.46225,448.50014 L 181.54964,448.50014"
       style="fill:none;fill-rule:evenodd;stroke:black;stroke-width:2.06293488;stroke-linecap:butt;stroke-linejoin:miter;stroke-miterlimit:4;stroke-dasharray:none;stroke-opacity:1" />
    <path
       style="fill:none;fill-rule:evenodd;stroke:black;stroke-width:2.09653211;stroke-linecap:butt;stroke-linejoin:miter;stroke-miterlimit:4;stroke-dasharray:none;stroke-opacity:1"
       d="M 150.13326,471.32551 L 182.24148,471.32551"
       id="path7274" />
    <path
       id="path7276"
       d="M 149.59947,492.56995 L 182.55923,492.56995"
       style="fill:none;fill-rule:evenodd;stroke:black;stroke-width:2.12415123;stroke-linecap:butt;stroke-linejoin:miter;stroke-miterlimit:4;stroke-dasharray:none;stroke-opacity:1" />
    <path
       style="fill:none;fill-rule:evenodd;stroke:black;stroke-width:2.15143728;stroke-linecap:butt;stroke-linejoin:miter;stroke-miterlimit:4;stroke-dasharray:none;stroke-opacity:1"
       d="M 149.4455,512.90725 L 183.25748,512.90725"
       id="path7278" />
    <path
       id="path7280"
       d="M 149.4455,531.81043 L 183.25748,531.81043"
       style="fill:none;fill-rule:evenodd;stroke:black;stroke-width:2.15143728;stroke-linecap:butt;stroke-linejoin:miter;stroke-miterlimit:4;stroke-dasharray:none;stroke-opacity:1" />
    <path
       style="fill:none;fill-rule:evenodd;stroke:black;stroke-width:2.1730361;stroke-linecap:butt;stroke-linejoin:miter;stroke-miterlimit:4;stroke-dasharray:none;stroke-opacity:1"
       d="M 148.92292,550.10009 L 183.4172,550.10009"
       id="path7282" />
    <path
       id="path7284"
       d="M 148.93367,567.18898 L 183.7693,567.18898"
       style="fill:none;fill-rule:evenodd;stroke:black;stroke-width:2.18376184;stroke-linecap:butt;stroke-linejoin:miter;stroke-miterlimit:4;stroke-dasharray:none;stroke-opacity:1" />
    <path
       style="fill:none;fill-rule:evenodd;stroke:black;stroke-width:2.22090435;stroke-linecap:butt;stroke-linejoin:miter;stroke-miterlimit:4;stroke-dasharray:none;stroke-opacity:1"
       d="M 148.04668,582.86105 L 184.07739,582.86105"
       id="path7286" />
    <path
       id="path7288"
       d="M 147.89836,597.90231 L 184.44175,597.90231"
       style="fill:none;fill-rule:evenodd;stroke:black;stroke-width:2.23664927;stroke-linecap:butt;stroke-linejoin:miter;stroke-miterlimit:4;stroke-dasharray:none;stroke-opacity:1" />
    <path
       style="fill:none;fill-rule:evenodd;stroke:black;stroke-width:2.23664927;stroke-linecap:butt;stroke-linejoin:miter;stroke-miterlimit:4;stroke-dasharray:none;stroke-opacity:1"
       d="M 147.89836,612.5634 L 184.44175,612.5634"
       id="path7290" />
    <path
       id="path7292"
       d="M 147.02784,626.05833 L 184.76799,626.05833"
       style="fill:none;fill-rule:evenodd;stroke:black;stroke-width:2.27297807;stroke-linecap:butt;stroke-linejoin:miter;stroke-miterlimit:4;stroke-dasharray:none;stroke-opacity:1" />
    <path
       style="fill:none;fill-rule:evenodd;stroke:black;stroke-width:2.27297807;stroke-linecap:butt;stroke-linejoin:miter;stroke-miterlimit:4;stroke-dasharray:none;stroke-opacity:1"
       d="M 147.3907,638.87053 L 185.13085,638.87053"
       id="path7294" />
    <path
       id="path7296"
       d="M 147.3907,650.87943 L 185.13085,650.87943"
       style="fill:none;fill-rule:evenodd;stroke:black;stroke-width:2.27297807;stroke-linecap:butt;stroke-linejoin:miter;stroke-miterlimit:4;stroke-dasharray:none;stroke-opacity:1" />
    <path
       style="fill:none;fill-rule:evenodd;stroke:black;stroke-width:2.27297807;stroke-linecap:butt;stroke-linejoin:miter;stroke-miterlimit:4;stroke-dasharray:none;stroke-opacity:1"
       d="M 147.40801,662.1626 L 185.14816,662.1626"
       id="path7298" />
    <path
       id="path7300"
       d="M 147.40616,672.84957 L 185.65968,672.84957"
       style="fill:none;fill-rule:evenodd;stroke:black;stroke-width:2.28838515;stroke-linecap:butt;stroke-linejoin:miter;stroke-miterlimit:4;stroke-dasharray:none;stroke-opacity:1" />
    <path
       style="fill:none;fill-rule:evenodd;stroke:black;stroke-width:2.30369496;stroke-linecap:butt;stroke-linejoin:miter;stroke-miterlimit:4;stroke-dasharray:none;stroke-opacity:1"
       d="M 146.69581,683.0788 L 185.46289,683.0788"
       id="path7302" />
    <path
       id="path7304"
       d="M 147.05867,693.18687 L 185.82575,693.18687"
       style="fill:none;fill-rule:evenodd;stroke:black;stroke-width:2.30369496;stroke-linecap:butt;stroke-linejoin:miter;stroke-miterlimit:4;stroke-dasharray:none;stroke-opacity:1" />
    <path
       style="fill:none;fill-rule:evenodd;stroke:black;stroke-width:2.35900164;stroke-linecap:butt;stroke-linejoin:miter;stroke-miterlimit:4;stroke-dasharray:none;stroke-opacity:1"
       d="M 145.31766,702.25829 L 185.96851,702.25829"
       id="path7306" />
    <path
       id="path7308"
       d="M 145.30035,710.82004 L 185.9512,710.82004"
       style="fill:none;fill-rule:evenodd;stroke:black;stroke-width:2.05900002;stroke-linecap:butt;stroke-linejoin:miter;stroke-miterlimit:4;stroke-dasharray:none;stroke-opacity:1" />
    <path
       style="fill:none;fill-rule:evenodd;stroke:black;stroke-width:2.39396811;stroke-linecap:butt;stroke-linejoin:miter;stroke-miterlimit:4;stroke-dasharray:none;stroke-opacity:1"
       d="M 145.15638,718.31053 L 187.02128,718.31053"
       id="path7310" />
    <path
       id="path7312"
       d="M 144.98637,726.12926 L 187.26007,726.12926"
       style="fill:none;fill-rule:evenodd;stroke:black;stroke-width:2.4056282;stroke-linecap:butt;stroke-linejoin:miter;stroke-miterlimit:4;stroke-dasharray:none;stroke-opacity:1" />
    <path
       style="fill:none;fill-rule:evenodd;stroke:black;stroke-width:2.4056282;stroke-linecap:butt;stroke-linejoin:miter;stroke-miterlimit:4;stroke-dasharray:none;stroke-opacity:1"
       d="M 144.16577,733.86145 L 186.43947,733.86145"
       id="path7314" />
    <path
       style="fill:none;fill-rule:evenodd;stroke:black;stroke-width:2;stroke-linecap:butt;stroke-linejoin:miter;stroke-miterlimit:4;stroke-dasharray:none;stroke-opacity:1"
       d="M 146.10802,693.45874 L 145.24475,741.15427 L 187.54485,741.15427 L 186.44563,692.97985"
       id="path7334"
       sodipodi:nodetypes="cccc" />
    <path
       sodipodi:type="arc"
       style="opacity:1;fill:none;fill-opacity:1;stroke:black;stroke-width:0.5;stroke-linecap:round;stroke-miterlimit:4;stroke-dasharray:none;stroke-dashoffset:0;stroke-opacity:1"
       id="path8221"
       sodipodi:cx="155.92769"
       sodipodi:cy="729.82391"
       sodipodi:rx="2.0502601"
       sodipodi:ry="2.0502601"
       d="M 157.97795 729.82391 A 2.0502601 2.0502601 0 1 1  153.87743,729.82391 A 2.0502601 2.0502601 0 1 1  157.97795 729.82391 z"
       transform="matrix(0.97815,0,0,0.97815,3.140905,16.10884)" />
    <path
       transform="matrix(0.97815,0,0,0.97815,24.72259,16.10884)"
       d="M 157.97795 729.82391 A 2.0502601 2.0502601 0 1 1  153.87743,729.82391 A 2.0502601 2.0502601 0 1 1  157.97795 729.82391 z"
       sodipodi:ry="2.0502601"
       sodipodi:rx="2.0502601"
       sodipodi:cy="729.82391"
       sodipodi:cx="155.92769"
       id="path9108"
       style="opacity:1;fill:none;fill-opacity:1;stroke:black;stroke-width:0.5;stroke-linecap:round;stroke-miterlimit:4;stroke-dasharray:none;stroke-dashoffset:0;stroke-opacity:1"
       sodipodi:type="arc" />
    <path
       sodipodi:type="arc"
       style="opacity:1;fill:none;fill-opacity:1;stroke:black;stroke-width:0.5;stroke-linecap:round;stroke-miterlimit:4;stroke-dasharray:none;stroke-dashoffset:0;stroke-opacity:1"
       id="path9110"
       sodipodi:cx="155.92769"
       sodipodi:cy="729.82391"
       sodipodi:rx="2.0502601"
       sodipodi:ry="2.0502601"
       d="M 157.97795 729.82391 A 2.0502601 2.0502601 0 1 1  153.87743,729.82391 A 2.0502601 2.0502601 0 1 1  157.97795 729.82391 z"
       transform="matrix(0.97815,0,0,0.97815,14.20829,-6.646289)" />
    <path
       transform="matrix(0.97815,0,0,0.97815,14.42411,-24.99072)"
       d="M 157.97795 729.82391 A 2.0502601 2.0502601 0 1 1  153.87743,729.82391 A 2.0502601 2.0502601 0 1 1  157.97795 729.82391 z"
       sodipodi:ry="2.0502601"
       sodipodi:rx="2.0502601"
       sodipodi:cy="729.82391"
       sodipodi:cx="155.92769"
       id="path9112"
       style="opacity:1;fill:none;fill-opacity:1;stroke:black;stroke-width:0.5;stroke-linecap:round;stroke-miterlimit:4;stroke-dasharray:none;stroke-dashoffset:0;stroke-opacity:1"
       sodipodi:type="arc" />
    <path
       sodipodi:type="arc"
       style="opacity:1;fill:none;fill-opacity:1;stroke:black;stroke-width:0.5;stroke-linecap:round;stroke-miterlimit:4;stroke-dasharray:none;stroke-dashoffset:0;stroke-opacity:1"
       id="path9114"
       sodipodi:cx="155.92769"
       sodipodi:cy="729.82391"
       sodipodi:rx="2.0502601"
       sodipodi:ry="2.0502601"
       d="M 157.97795 729.82391 A 2.0502601 2.0502601 0 1 1  153.87743,729.82391 A 2.0502601 2.0502601 0 1 1  157.97795 729.82391 z"
       transform="matrix(0.97815,0,0,0.97815,14.14757,-45.10435)" />
    <path
       transform="matrix(0.97815,0,0,0.97815,23.05679,-107.4238)"
       d="M 157.97795 729.82391 A 2.0502601 2.0502601 0 1 1  153.87743,729.82391 A 2.0502601 2.0502601 0 1 1  157.97795 729.82391 z"
       sodipodi:ry="2.0502601"
       sodipodi:rx="2.0502601"
       sodipodi:cy="729.82391"
       sodipodi:cx="155.92769"
       id="path9116"
       style="opacity:1;fill:none;fill-opacity:1;stroke:black;stroke-width:0.5;stroke-linecap:round;stroke-miterlimit:4;stroke-dasharray:none;stroke-dashoffset:0;stroke-opacity:1"
       sodipodi:type="arc" />
    <path
       sodipodi:type="arc"
       style="opacity:1;fill:none;fill-opacity:1;stroke:black;stroke-width:0.5;stroke-linecap:round;stroke-miterlimit:4;stroke-dasharray:none;stroke-dashoffset:0;stroke-opacity:1"
       id="path9118"
       sodipodi:cx="155.92769"
       sodipodi:cy="729.82391"
       sodipodi:rx="2.0502601"
       sodipodi:ry="2.0502601"
       d="M 157.97795 729.82391 A 2.0502601 2.0502601 0 1 1  153.87743,729.82391 A 2.0502601 2.0502601 0 1 1  157.97795 729.82391 z"
       transform="matrix(0.97815,0,0,0.97815,6.603012,-107.3721)" />
    <path
       sodipodi:type="arc"
       style="opacity:1;fill:none;fill-opacity:1;stroke:black;stroke-width:0.5;stroke-linecap:round;stroke-miterlimit:4;stroke-dasharray:none;stroke-dashoffset:0;stroke-opacity:1"
       id="path9122"
       sodipodi:cx="155.92769"
       sodipodi:cy="729.82391"
       sodipodi:rx="2.0502601"
       sodipodi:ry="2.0502601"
       d="M 157.97795 729.82391 A 2.0502601 2.0502601 0 1 1  153.87743,729.82391 A 2.0502601 2.0502601 0 1 1  157.97795 729.82391 z"
       transform="matrix(0.97815,0,0,0.97815,14.69163,-154.1436)" />
    <path
       transform="matrix(0.97815,0,0,0.97815,14.63993,-190.2884)"
       d="M 157.97795 729.82391 A 2.0502601 2.0502601 0 1 1  153.87743,729.82391 A 2.0502601 2.0502601 0 1 1  157.97795 729.82391 z"
       sodipodi:ry="2.0502601"
       sodipodi:rx="2.0502601"
       sodipodi:cy="729.82391"
       sodipodi:cx="155.92769"
       id="path9124"
       style="opacity:1;fill:none;fill-opacity:1;stroke:black;stroke-width:0.5;stroke-linecap:round;stroke-miterlimit:4;stroke-dasharray:none;stroke-dashoffset:0;stroke-opacity:1"
       sodipodi:type="arc" />
    <path
       sodipodi:type="arc"
       style="opacity:1;fill:none;fill-opacity:1;stroke:black;stroke-width:0.5;stroke-linecap:round;stroke-miterlimit:4;stroke-dasharray:none;stroke-dashoffset:0;stroke-opacity:1"
       id="path9126"
       sodipodi:cx="155.92769"
       sodipodi:cy="729.82391"
       sodipodi:rx="2.0502601"
       sodipodi:ry="2.0502601"
       d="M 157.97795 729.82391 A 2.0502601 2.0502601 0 1 1  153.87743,729.82391 A 2.0502601 2.0502601 0 1 1  157.97795 729.82391 z"
       transform="matrix(0.97815,0,0,0.97815,14.69163,-230.9136)" />
    <path
       transform="matrix(0.97815,0,0,0.97815,14.69163,-275.9587)"
       d="M 157.97795 729.82391 A 2.0502601 2.0502601 0 1 1  153.87743,729.82391 A 2.0502601 2.0502601 0 1 1  157.97795 729.82391 z"
       sodipodi:ry="2.0502601"
       sodipodi:rx="2.0502601"
       sodipodi:cy="729.82391"
       sodipodi:cx="155.92769"
       id="path9128"
       style="opacity:1;fill:none;fill-opacity:1;stroke:black;stroke-width:0.5;stroke-linecap:round;stroke-miterlimit:4;stroke-dasharray:none;stroke-dashoffset:0;stroke-opacity:1"
       sodipodi:type="arc" />
    <path
       sodipodi:type="arc"
       style="opacity:1;fill:none;fill-opacity:1;stroke:black;stroke-width:1.39999998;stroke-linecap:round;stroke-miterlimit:4;stroke-dasharray:none;stroke-dashoffset:0;stroke-opacity:1"
       id="path13567"
       sodipodi:cx="220.13426"
       sodipodi:cy="844.8158"
       sodipodi:rx="7.0614896"
       sodipodi:ry="7.0614896"
       d="M 227.19575 844.8158 A 7.0614896 7.0614896 0 1 1  213.07277,844.8158 A 7.0614896 7.0614896 0 1 1  227.19575 844.8158 z"
       transform="translate(0,1.535106)" />
    <path
       sodipodi:type="arc"
       style="opacity:1;fill:none;fill-opacity:1;stroke:black;stroke-width:1.39999998;stroke-linecap:round;stroke-miterlimit:4;stroke-dasharray:none;stroke-dashoffset:0;stroke-opacity:1"
       id="path13569"
       sodipodi:cx="220.13426"
       sodipodi:cy="844.8158"
       sodipodi:rx="7.0614896"
       sodipodi:ry="7.0614896"
       d="M 227.19575 844.8158 A 7.0614896 7.0614896 0 1 1  213.07277,844.8158 A 7.0614896 7.0614896 0 1 1  227.19575 844.8158 z"
       transform="translate(26.95421,77.54906)" />
    <g
       id="g14660"
       transform="translate(-1.969449,-1.148845)">
      <path
         transform="matrix(0.837468,0,0,0.837468,56.9299,173.5713)"
         d="M 227.19575 844.8158 A 7.0614896 7.0614896 0 1 1  213.07277,844.8158 A 7.0614896 7.0614896 0 1 1  227.19575 844.8158 z"
         sodipodi:ry="7.0614896"
         sodipodi:rx="7.0614896"
         sodipodi:cy="844.8158"
         sodipodi:cx="220.13426"
         id="path13571"
         style="opacity:1;fill:none;fill-opacity:1;stroke:black;stroke-width:1.39999998;stroke-linecap:round;stroke-miterlimit:4;stroke-dasharray:none;stroke-dashoffset:0;stroke-opacity:1"
         sodipodi:type="arc" />
      <path
         transform="matrix(0.97711,0,0,1.023639,5.034798,-20.90662)"
         d="M 245.00298 881.19781 A 3.377234 3.2237234 0 1 1  238.24851,881.19781 A 3.377234 3.2237234 0 1 1  245.00298 881.19781 z"
         sodipodi:ry="3.2237234"
         sodipodi:rx="3.377234"
         sodipodi:cy="881.19781"
         sodipodi:cx="241.62575"
         id="path13573"
         style="opacity:1;fill:none;fill-opacity:1;stroke:black;stroke-width:1.39999998;stroke-linecap:round;stroke-miterlimit:4;stroke-dasharray:none;stroke-dashoffset:0;stroke-opacity:1"
         sodipodi:type="arc" />
    </g>
    <g
       id="g13767"
       transform="translate(0,0.328241)">
      <path
         sodipodi:nodetypes="ccc"
         style="fill:none;fill-rule:evenodd;stroke:black;stroke-width:1.70000005;stroke-linecap:butt;stroke-linejoin:miter;stroke-miterlimit:4;stroke-dasharray:none;stroke-opacity:1"
         d="M 154.25766,897.74925 L 159.55182,369.78819 L 163.19055,326.34085"
         id="path10017" />
      <path
         sodipodi:nodetypes="ccc"
         id="path10904"
         d="M 173.76223,313.64136 L 164.56459,369.78014 L 162.16355,891.89493"
         style="fill:none;fill-rule:evenodd;stroke:black;stroke-width:1.39999998;stroke-linecap:butt;stroke-linejoin:miter;stroke-miterlimit:4;stroke-dasharray:none;stroke-opacity:1" />
      <path
         sodipodi:nodetypes="ccc"
         id="path9130"
         d="M 146.80169,903.10281 L 153.66332,366.34164 L 152.2542,339.50277"
         style="fill:none;fill-rule:evenodd;stroke:black;stroke-width:1.89999998;stroke-linecap:butt;stroke-linejoin:miter;stroke-miterlimit:4;stroke-dasharray:none;stroke-opacity:1" />
      <path
         sodipodi:nodetypes="ccc"
         id="path10906"
         d="M 170.68849,892.19356 L 169.88605,369.67419 L 185.18619,301.16305"
         style="fill:none;fill-rule:evenodd;stroke:black;stroke-width:1px;stroke-linecap:butt;stroke-linejoin:miter;stroke-opacity:1" />
      <path
         sodipodi:nodetypes="ccc"
         id="path10908"
         d="M 196.61772,287.60794 L 174.65699,369.83832 L 178.99634,896.37811"
         style="fill:none;fill-rule:evenodd;stroke:black;stroke-width:0.80000001;stroke-linecap:butt;stroke-linejoin:miter;stroke-miterlimit:4;stroke-dasharray:none;stroke-opacity:1" />
      <path
         sodipodi:nodetypes="ccc"
         id="path10910"
         d="M 186.37503,903.35532 L 179.59465,370.00244 L 207.49635,275.64836"
         style="fill:none;fill-rule:evenodd;stroke:black;stroke-width:0.5;stroke-linecap:butt;stroke-linejoin:miter;stroke-miterlimit:4;stroke-dasharray:none;stroke-opacity:1" />
    </g>
    <g
       id="g13763"
       transform="translate(0.164121,4.267138)">
      <path
         transform="translate(56.29239,-66.48409)"
         d="M 153.35152 337.03928 A 4.6672201 4.5719705 0 1 1  144.01708,337.03928 A 4.6672201 4.5719705 0 1 1  153.35152 337.03928 z"
         sodipodi:ry="4.5719705"
         sodipodi:rx="4.6672201"
         sodipodi:cy="337.03928"
         sodipodi:cx="148.6843"
         id="path13585"
         style="opacity:1;fill:none;fill-opacity:1;stroke:black;stroke-width:1.39999998;stroke-linecap:round;stroke-miterlimit:4;stroke-dasharray:none;stroke-dashoffset:0;stroke-opacity:1"
         sodipodi:type="arc" />
      <path
         sodipodi:type="arc"
         style="opacity:1;fill:none;fill-opacity:1;stroke:black;stroke-width:1.39999998;stroke-linecap:round;stroke-miterlimit:4;stroke-dasharray:none;stroke-dashoffset:0;stroke-opacity:1"
         id="path13599"
         sodipodi:cx="148.6843"
         sodipodi:cy="337.03928"
         sodipodi:rx="4.6672201"
         sodipodi:ry="4.5719705"
         d="M 153.35152 337.03928 A 4.6672201 4.5719705 0 1 1  144.01708,337.03928 A 4.6672201 4.5719705 0 1 1  153.35152 337.03928 z"
         transform="matrix(0.443318,0,0,0.438253,139.2158,122.9491)" />
    </g>
    <g
       id="g13759"
       transform="translate(0.984724,3.610656)">
      <path
         transform="translate(45.24346,-53.33967)"
         d="M 153.35152 337.03928 A 4.6672201 4.5719705 0 1 1  144.01708,337.03928 A 4.6672201 4.5719705 0 1 1  153.35152 337.03928 z"
         sodipodi:ry="4.5719705"
         sodipodi:rx="4.6672201"
         sodipodi:cy="337.03928"
         sodipodi:cx="148.6843"
         id="path13583"
         style="opacity:1;fill:none;fill-opacity:1;stroke:black;stroke-width:1.39999998;stroke-linecap:round;stroke-miterlimit:4;stroke-dasharray:none;stroke-dashoffset:0;stroke-opacity:1"
         sodipodi:type="arc" />
      <path
         sodipodi:type="arc"
         style="opacity:1;fill:none;fill-opacity:1;stroke:black;stroke-width:1.39999998;stroke-linecap:round;stroke-miterlimit:4;stroke-dasharray:none;stroke-dashoffset:0;stroke-opacity:1"
         id="path13601"
         sodipodi:cx="148.6843"
         sodipodi:cy="337.03928"
         sodipodi:rx="4.6672201"
         sodipodi:ry="4.5719705"
         d="M 153.35152 337.03928 A 4.6672201 4.5719705 0 1 1  144.01708,337.03928 A 4.6672201 4.5719705 0 1 1  153.35152 337.03928 z"
         transform="matrix(0.443318,0,0,0.438253,127.9207,135.5834)" />
    </g>
    <g
       id="g13755"
       transform="translate(0.328241,3.938897)">
      <path
         transform="translate(34.00404,-40.00476)"
         d="M 153.35152 337.03928 A 4.6672201 4.5719705 0 1 1  144.01708,337.03928 A 4.6672201 4.5719705 0 1 1  153.35152 337.03928 z"
         sodipodi:ry="4.5719705"
         sodipodi:rx="4.6672201"
         sodipodi:cy="337.03928"
         sodipodi:cx="148.6843"
         id="path13581"
         style="opacity:1;fill:none;fill-opacity:1;stroke:black;stroke-width:1.39999998;stroke-linecap:round;stroke-miterlimit:4;stroke-dasharray:none;stroke-dashoffset:0;stroke-opacity:1"
         sodipodi:type="arc" />
      <path
         sodipodi:type="arc"
         style="opacity:1;fill:none;fill-opacity:1;stroke:black;stroke-width:1.39999998;stroke-linecap:round;stroke-miterlimit:4;stroke-dasharray:none;stroke-dashoffset:0;stroke-opacity:1"
         id="path13603"
         sodipodi:cx="148.6843"
         sodipodi:cy="337.03928"
         sodipodi:rx="4.6672201"
         sodipodi:ry="4.5719705"
         d="M 153.35152 337.03928 A 4.6672201 4.5719705 0 1 1  144.01708,337.03928 A 4.6672201 4.5719705 0 1 1  153.35152 337.03928 z"
         transform="matrix(0.443318,0,0,0.438253,116.9014,149.1702)" />
    </g>
    <g
       id="g13751"
       transform="translate(-0.328241,3.938897)">
      <path
         transform="translate(22.76461,-27.05084)"
         d="M 153.35152 337.03928 A 4.6672201 4.5719705 0 1 1  144.01708,337.03928 A 4.6672201 4.5719705 0 1 1  153.35152 337.03928 z"
         sodipodi:ry="4.5719705"
         sodipodi:rx="4.6672201"
         sodipodi:cy="337.03928"
         sodipodi:cx="148.6843"
         id="path13579"
         style="opacity:1;fill:none;fill-opacity:1;stroke:black;stroke-width:1.39999998;stroke-linecap:round;stroke-miterlimit:4;stroke-dasharray:none;stroke-dashoffset:0;stroke-opacity:1"
         sodipodi:type="arc" />
      <path
         sodipodi:type="arc"
         style="opacity:1;fill:none;fill-opacity:1;stroke:black;stroke-width:1.39999998;stroke-linecap:round;stroke-miterlimit:4;stroke-dasharray:none;stroke-dashoffset:0;stroke-opacity:1"
         id="path13605"
         sodipodi:cx="148.6843"
         sodipodi:cy="337.03928"
         sodipodi:rx="4.6672201"
         sodipodi:ry="4.5719705"
         d="M 153.35152 337.03928 A 4.6672201 4.5719705 0 1 1  144.01708,337.03928 A 4.6672201 4.5719705 0 1 1  153.35152 337.03928 z"
         transform="matrix(0.443318,0,0,0.438253,105.6917,161.5905)" />
    </g>
    <g
       id="g13747"
       transform="translate(0.984724,3.610656)">
      <path
         transform="translate(11.52518,-13.71593)"
         d="M 153.35152 337.03928 A 4.6672201 4.5719705 0 1 1  144.01708,337.03928 A 4.6672201 4.5719705 0 1 1  153.35152 337.03928 z"
         sodipodi:ry="4.5719705"
         sodipodi:rx="4.6672201"
         sodipodi:cy="337.03928"
         sodipodi:cx="148.6843"
         id="path13577"
         style="opacity:1;fill:none;fill-opacity:1;stroke:black;stroke-width:1.39999998;stroke-linecap:round;stroke-miterlimit:4;stroke-dasharray:none;stroke-dashoffset:0;stroke-opacity:1"
         sodipodi:type="arc" />
      <path
         sodipodi:type="arc"
         style="opacity:1;fill:none;fill-opacity:1;stroke:black;stroke-width:1.39999998;stroke-linecap:round;stroke-miterlimit:4;stroke-dasharray:none;stroke-dashoffset:0;stroke-opacity:1"
         id="path13607"
         sodipodi:cx="148.6843"
         sodipodi:cy="337.03928"
         sodipodi:rx="4.6672201"
         sodipodi:ry="4.5719705"
         d="M 153.35152 337.03928 A 4.6672201 4.5719705 0 1 1  144.01708,337.03928 A 4.6672201 4.5719705 0 1 1  153.35152 337.03928 z"
         transform="matrix(0.443318,0,0,0.438253,94.10091,175.1773)" />
    </g>
    <g
       id="g21980">
      <path
         transform="translate(0.767847,3.72202)"
         d="M 153.35152 337.03928 A 4.6672201 4.5719705 0 1 1  144.01708,337.03928 A 4.6672201 4.5719705 0 1 1  153.35152 337.03928 z"
         sodipodi:ry="4.5719705"
         sodipodi:rx="4.6672201"
         sodipodi:cy="337.03928"
         sodipodi:cx="148.6843"
         id="path13575"
         style="opacity:1;fill:none;fill-opacity:1;stroke:black;stroke-width:1.39999998;stroke-linecap:round;stroke-miterlimit:4;stroke-dasharray:none;stroke-dashoffset:0;stroke-opacity:1"
         sodipodi:type="arc" />
      <path
         sodipodi:type="arc"
         style="opacity:1;fill:none;fill-opacity:1;stroke:black;stroke-width:1.39999998;stroke-linecap:round;stroke-miterlimit:4;stroke-dasharray:none;stroke-dashoffset:0;stroke-opacity:1"
         id="path13609"
         sodipodi:cx="148.6843"
         sodipodi:cy="337.03928"
         sodipodi:rx="4.6672201"
         sodipodi:ry="4.5719705"
         d="M 153.35152 337.03928 A 4.6672201 4.5719705 0 1 1  144.01708,337.03928 A 4.6672201 4.5719705 0 1 1  153.35152 337.03928 z"
         transform="matrix(0.443318,0,0,0.438253,83.43682,192.5696)" />
    </g>
    <path
       style="fill:none;fill-rule:evenodd;stroke:black;stroke-width:1px;stroke-linecap:butt;stroke-linejoin:miter;stroke-opacity:1"
       d="M 138.62069,334.97461 L 135.00121,332.11713 C 134.40129,327.07224 138.50585,322.73974 143.77254,323.75195 L 146.75266,326.5798 L 146.10766,330.60991 L 147.8129,332.12125 L 145.32565,335.77903 C 142.97617,335.14313 141.36794,332.59577 138.62069,334.97461 z "
       id="path13611"
       sodipodi:nodetypes="cccccccc" />
    <path
       sodipodi:nodetypes="cccccccc"
       id="path13613"
       d="M 149.6735,322.82185 L 146.05402,319.96437 C 145.4541,314.91948 149.26034,311.28307 154.52703,312.29528 L 156.71162,314.62592 L 156.36493,318.25826 L 157.74678,319.97334 L 155.25469,322.60679 C 152.90521,321.97089 152.02298,321.83519 149.6735,322.82185 z "
       style="fill:none;fill-rule:evenodd;stroke:black;stroke-width:1px;stroke-linecap:butt;stroke-linejoin:miter;stroke-opacity:1" />
    <path
       style="fill:none;fill-rule:evenodd;stroke:black;stroke-width:1px;stroke-linecap:butt;stroke-linejoin:miter;stroke-opacity:1"
       d="M 160.3109,310.69567 L 156.69142,307.83819 C 156.0915,302.7933 159.99718,298.06303 165.26387,299.07524 L 168.24399,301.30644 L 167.99675,305.23711 L 168.88139,306.55442 L 166.09097,309.88396 C 163.74149,309.24806 163.6451,308.88841 160.3109,310.69567 z "
       id="path13615"
       sodipodi:nodetypes="cccccccc" />
    <path
       sodipodi:nodetypes="cccccccc"
       id="path13617"
       d="M 170.72151,297.64662 L 167.69868,295.08747 C 167.09876,290.04258 170.30835,285.90896 175.57504,286.92117 L 178.35627,289.25181 L 178.60624,292.68527 L 179.49088,294.00258 L 176.60102,297.43156 C 174.25154,296.79566 173.07099,296.65996 170.72151,297.64662 z "
       style="fill:none;fill-rule:evenodd;stroke:black;stroke-width:1px;stroke-linecap:butt;stroke-linejoin:miter;stroke-opacity:1" />
    <path
       style="fill:none;fill-rule:evenodd;stroke:black;stroke-width:1px;stroke-linecap:butt;stroke-linejoin:miter;stroke-opacity:1"
       d="M 181.4955,286.32732 L 177.87602,283.46984 C 177.2761,278.42495 180.38625,274.29133 185.65294,275.30354 L 188.53362,277.13697 L 188.28637,280.76932 L 189.96655,282.08663 L 186.8778,285.81393 C 184.52832,285.17803 183.84498,285.34066 181.4955,286.32732 z "
       id="path13619"
       sodipodi:nodetypes="cccccccc" />
    <path
       sodipodi:nodetypes="cccccccc"
       id="path13621"
       d="M 191.97659,273.91285 L 188.35711,271.05537 C 187.75719,266.01048 191.40451,261.43522 196.6712,262.44743 L 199.23795,264.36861 L 199.11842,268.53033 L 200.29559,269.42551 L 196.70704,273.31469 C 194.35756,272.67879 194.65431,271.94147 191.97659,273.91285 z "
       style="fill:none;fill-rule:evenodd;stroke:black;stroke-width:1px;stroke-linecap:butt;stroke-linejoin:miter;stroke-opacity:1" />
    <path
       transform="matrix(0.97815,0,0,0.97815,14.35946,-68.54014)"
       d="M 157.97795 729.82391 A 2.0502601 2.0502601 0 1 1  153.87743,729.82391 A 2.0502601 2.0502601 0 1 1  157.97795 729.82391 z"
       sodipodi:ry="2.0502601"
       sodipodi:rx="2.0502601"
       sodipodi:cy="729.82391"
       sodipodi:cx="155.92769"
       id="path22659"
       style="opacity:1;fill:none;fill-opacity:1;stroke:black;stroke-width:0.5;stroke-linecap:round;stroke-miterlimit:4;stroke-dasharray:none;stroke-dashoffset:0;stroke-opacity:1"
       sodipodi:type="arc" />
  </g>
</svg>
